<svg height="113" viewBox="0 0 350 113" width="350" xmlns="http://www.w3.org/2000/svg"><g fill="none" fill-rule="evenodd"><g fill="#323233"><path d="m27.4524113 103.213723v-1.262099h5.4725422v-4.1252958h1.3472465v4.1252958h5.4725423v1.262099h-5.4725423v6.314471h6.6510845v1.094986h-14.4799155v-1.094986h6.4815845v-6.314471zm-5.9762676-6.901754v-1.3472465h5.9762676c.0557042-.2228169.1973521-.5594295.4217605-1.009838.2809085-.8419296.5061127-1.4873028.6732254-1.9361197l1.5151549.2522606c-.1679084.4496126-.4209648 1.0392816-.7567817 1.7682112-.1695.4488169-.2825.7575775-.3366127.9254859h11.9541268v1.3472465h-12.543c-.7886127 1.6281549-1.7419507 3.2268662-2.8631972 4.79693v11.02864h-1.4308028v-9.343985c-.7862253.841929-1.6838591 1.711711-2.6936972 2.609345-.1687042-.448022-.4496127-.869782-.8419296-1.262099 2.8624015-2.525789 4.936986-5.1351338 6.2285282-7.828831zm36.5681528 1.6841775v-2.2011127c0-.5984225.4854225-1.0838451 1.083845-1.0838451h8.2601409c-.2252042-.8419295-.5610211-1.6536197-1.0090423-2.439845l1.4308029-.3366127c.3923169.7862253.7567816 1.5987113 1.0949859 2.4398451l-.8419296.3366126h7.8383803c.5984225 0 1.083845.4854226 1.083845 1.0838451v2.2011127h-1.4315985v-1.8358521c0-.1488099-.1209578-.2697676-.2705634-.2697676h-15.5367042c-.1496057 0-.2705634.1209577-.2705634.2697676v1.8358521zm2.4422324 1.2620986v-1.0949859h14.1417112v1.0949859h-6.3120845c-.6191126.5053169-1.2366338.9811899-1.8533591 1.4315989.7862253.897633 1.4308028 1.850971 1.9369155 2.861605 2.4684929-1.122838 4.5725211-2.189176 6.3144718-3.198218l.7559859 1.177746c-.2801127.113796-.6724296.308761-1.1785422.589669-.3915212.225205-1.2915423.67243-2.6929014 1.345655.953338 2.920493 2.916514 4.940965 5.8919154 6.061416-.0557042.057296-.113.113796-.1671126.1695-.1687043.167113-.3939085.475873-.6748169.925486-3.1425141-1.347247-5.2194859-3.562683-6.2285282-6.650289l-1.5151549.758373c.3923169 1.067134.589669 2.187585.589669 3.365331.0541127 2.583085-.9835775 3.874627-3.1154578 3.874627h-2.6936971c-.0572958-.506113-.1687043-.955725-.3358169-1.348042h2.609345c1.4570634.111408 2.1581409-.730521 2.1040282-2.526585 0-.616725-.0851479-1.23345-.2530563-1.850972-2.3005845 2.301381-5.4717465 4.095057-9.5126902 5.387395-.2252042-.392317-.4782605-.842726-.7567817-1.346451 4.0393521-1.010634 7.3513662-2.778845 9.933655-5.303042-.1695-.505317-.3947043-.98119-.6748169-1.431599-2.1318803 1.851768-4.9107254 3.339071-8.3333522 4.461909-.2244084-.506113-.4774647-.926282-.7583732-1.262099 3.421831-.953338 6.2571761-2.359472 8.5020563-4.210444-.1114084-.167112-.3079647-.420169-.5888732-.756781-.1114084-.168704-.1973521-.280909-.2530563-.338204-1.7952676 1.067133-4.1523521 2.077767-7.0704578 3.031901-.0557042-.055704-.1137958-.168704-.1679084-.336613-.2244085-.449612-.4217606-.786225-.5888733-1.011429 3.4775352-.728134 6.4242888-2.020472 8.838669-3.8714439zm48.6058361-2.6935381-1.345655-.7583732c1.234246-1.3472465 2.187584-2.4963451 2.862401-3.4520704l1.345655.7583732c-.954134 1.122838-1.067134 1.2620986-.336612.420169-.730522.8419296-1.57086 1.854155-2.525789 3.0319014zm-4.714169-.6748169c-.113-.1671126-.253057-.3923169-.420169-.6724295-.449613-.7289296-1.038486-1.6003029-1.767416-2.6101409l1.345655-.5888732c.280909.3358169.645373.8697817 1.094986 1.5987112.505317.7305212.869782 1.2915423 1.094986 1.6838592zm-5.6396552.3366127c-.5053169-.8395422-1.235838-1.8517676-2.189176-3.0295141l1.1785422-.6732253c.3915212.4496127.9811902 1.1785422 1.7690071 2.1875845.3366127.3366127.5602249.589669.6732249.7583732zm-3.7878873 4.4635002v-2.9578945c0-.5984226.4846268-1.0838451 1.0838451-1.0838451h16.6046334c.597627 0 1.08305.4854225 1.08305 1.0838451v2.9578945h-1.514359v-2.5090776c0-.1488099-.121754-.2705634-.27136-.2705634h-15.2836475c-.1496056 0-.2713592.1217535-.2713592.2705634v2.5090776zm-.7583732 5.975472v-1.345655h9.7657467v-1.178543l4.377556-2.443028h-10.1859154v-1.344859h11.4957604c.299211 0 .541127.241916.541127.541127v.668451c0 .189394-.098676.364464-.260218.46314l-4.453155 2.704838v.588874h8.923817v1.345655h-8.923817v2.946753c.055704 1.683859-.786226 2.497141-2.526585 2.442233-.672429.054908-1.656007.08276-2.945958.08276-.0557038-.504521-.1392601-1.038486-.2522601-1.597915.8419291.054112 1.7395631.083556 2.6952891.083556 1.064746.055704 1.570063-.393908 1.514359-1.347247v-2.61014zm51.0495807-.842169c-1.234247-1.796063-2.329233-3.310422-3.282571-4.544669l1.094986-.758373c.111409.1695.280909.393909.505317.674817 1.232655 1.515155 2.187584 2.777254 2.862401 3.787887zm-2.271141 5.977859c-.058092-.505316-.1695-.983577-.336613-1.430802h3.449683c1.683859.111408 2.525789-.645374 2.525789-2.274324.112204-1.289951.19576-4.151557.253056-8.5856129.046951-1.0846409.074007-1.8931479.081965-2.4239296.001592-.1504014-.120162-.2705634-.271359-.2705634h-5.535409c-.561817 1.3472465-1.15069 2.4979366-1.767415 3.4520709-.336613-.2793174-.731317-.5045216-1.178542-.6732258 1.28995-2.1899719 2.356288-4.6584648 3.198218-7.4078662l1.431599.2514648c-.113.3374084-.308761.8419295-.589669 1.5167464-.224409.7281338-.419374 1.2620986-.588874 1.5987113h5.650796c.598423 0 1.083845.4846268 1.083845 1.0830493v.7679225c-.113 4.8287607-.225204 8.4479437-.336613 10.8607327-.055704 2.299788-1.262098 3.479922-3.619183 3.535626zm-11.280902.1695v-15.3337812c0-.5984225.484627-1.0830493 1.08305-1.0830493h1.104535c.449612-1.2899507.758373-2.4135845.927077-3.3669225l1.515155.2514648c-.113.4496126-.366056 1.235838-.758373 2.358676-.113796.3358169-.197352.589669-.252261.7567817h3.042247c.598422 0 1.083845.4846268 1.083845 1.0830493v15.1642812h-1.348042v-1.683859h-5.049986v1.853359zm1.347247-2.948345h5.049986v-5.470155h-5.049986zm0-6.818197h5.049986v-5.1176265c0-.1496057-.120958-.2705634-.270564-.2705634h-4.508859c-.149605 0-.270563.1209577-.270563.2705634zm42.629329-1.599905c-.786225-.7846335-1.797655-1.7387673-3.031901-2.8608095.0565.0557042 0 0-.167113-.1695-1.124429.8419295-2.357084 1.6846549-3.704331 2.5257885-.055704-.1106125-.1695-.2522604-.336612-.4217604-.057296-.1671127-.253057-.4193732-.589669-.7559859 3.422626-1.8533592 6.145767-4.1252958 8.166239-6.8205845l1.514359.4225563c-.505317.6724296-1.066338 1.2915423-1.683859 1.8509719h10.103155v1.4315986c-2.807493 3.1433098-6.481585 5.639655-11.028641 7.493014h11.028641v8.922225h-1.431599v-1.262098h-11.448809v1.262098h-1.347247v-7.660126c-.167113.055704-.420169.140852-.756782.25226-.618317.1695-1.516746.449613-2.694493.842726-.0565-.1695-.197352-.448817-.420964-.842726-.113-.222817-.196557-.391521-.252261-.505317 6.957458-1.683859 12.459444-4.5454645 16.500387-8.5856124h-9.513486l-1.094985 1.0090423c.561816.4496126 1.431598 1.1785422 2.61014 2.1899718.336613.3366127.617522.5888732.84193.7559859zm-2.61014 9.176078h11.448014v-5.219486h-11.448014zm39.26185-15.0690277v-1.3448591h12.375887v1.3448591h-5.639655v3.3677183h3.630324c.598422 0 1.083845.4862183 1.083845 1.0846409v7.6704715c.054908 1.515951-.619113 2.273528-2.020472 2.273528h-1.684655c0-.449612-.083556-.897633-.25226-1.348042h.674817c.389929.0565.672429.084352.839542.084352.841929.057296 1.234246-.336612 1.178542-1.178542v-7.0529506c0-.1488099-.120958-.2705634-.270563-.2705634h-3.17912v12.879613h-1.348042v-12.879613h-3.097155c-.149606 0-.270564.1217535-.270564.2705634v9.7482396h-1.262098v-10.1970565c0-.5984226.484627-1.0846409 1.083049-1.0846409h3.546768v-3.3677183zm-6.901754 11.5339577v-12.2899436h1.262099v12.2899436zm.925486 6.145768c-.336613-.336613-.702669-.673226-1.094986-1.012226 1.628951-1.344859 2.693697-2.747014 3.199014-4.208056.561817-1.401359.84193-3.534831.84193-6.398028v-8.5856129h1.348042v8.5028519c0 3.087606-.2825 5.416042-.84193 6.986902-.619112 1.570859-1.768211 3.140922-3.45207 4.714169zm35.221861-17.2577264v-1.1785422h8.922226v-1.8533592h1.431598v1.8533592h9.007373v1.1785422h-9.007373v2.1883803h5.56724c.598422 0 1.083845.4846267 1.083845 1.0830493v11.7122108h2.862401v1.178543h-20.372627v-1.178543h2.778845v-11.7122108c0-.5984226.485423-1.0830493 1.083845-1.0830493h5.564853v-2.1883803zm52.226849 2.6934585-.841929-.8419296c1.010634-.7846338 1.767415-1.4308028 2.272732-1.9369155l.925486.6748169c-.505317.5037253-1.291542 1.2063944-2.356289 2.1040282zm-6.145767 0c-.67243-.6732254-1.375099-1.3178029-2.104028-1.9369155l.841929-.7567817c.336613.2809084.784634.6732253 1.346451 1.179338.336613.3366127.616725.5888732.84193.7559859zm-2.609345 14.3947679v-7.585324c0-.599219.485422-1.084641 1.083845-1.084641h9.449824c.598422 0 1.083845.485422 1.083845 1.084641v7.585324h-1.26369v-1.093395h-9.091726v1.093395zm6.398028-2.104824h3.955796v-2.187585h-3.955796zm3.684437-5.471747h-3.684437v2.273528h3.955796v-2.002964c0-.14881-.121754-.270564-.271359-.270564zm-8.820367 5.471747h3.873831v-2.187585h-3.873831zm0-5.201183v2.002964h3.873831v-2.273528h-3.603267c-.149606 0-.270564.121754-.270564.270564zm-1.515155-10.2042187c0-.3915211-.083556-.783838-.25226-1.1785422 4.488965-.1114085 8.55776-.2801127 12.206387-.5053169l.336613 1.0949859c-1.459451.113-3.338275.2252042-5.639655.3366126v3.873831h6.565141v1.0925986h-5.470155c1.345655 1.3472467 3.224479 2.3865277 5.638859 3.1154577-.335817.336613-.588873.730521-.757577 1.177747-2.749402-1.064747-4.742022-2.439846-5.976268-4.1237047v3.0295137h-1.262099v-3.0295137c-1.405338 1.7968587-3.45207 3.2284577-6.146563 4.2932047-.336613-.449613-.617521-.786226-.841134-1.010634 2.580697-.842726 4.545465-1.991028 5.892711-3.4520707h-4.966429v-1.0925986h6.061415v-3.7886831c-.563408.0557043-1.461042.0835564-2.695288.0835564-1.178543.0557042-2.076176.0835563-2.693698.0835563zm-6.566732 17.3431127c-.055704-.619113-.13926-1.094986-.250669-1.431599.278521.055705.728134.083557 1.345655.083557.84193.055704 1.234246-.308761 1.178542-1.09419v-6.06062l-2.524197 1.009838-.253056-1.431599c1.121246-.392317 2.048324-.728133 2.777253-1.009042v-4.5462605h-2.440641v-1.2620986h2.440641v-4.1252958h1.26369v4.1252958h2.020472v1.2620986h-2.020472v4.1237045c.55943-.222817 1.148303-.447226 1.767416-.671634 0 .393908.054113.813282.167908 1.261303-.504521.168704-1.15069.422556-1.935324.759169v6.733049c.111409 1.459451-.589669 2.189972-2.105619 2.189972-.450409.054113-.926282.084352-1.431599.084352zm43.053637-10.523085v-7.419803c0-.5984226.484626-1.0846409 1.083049-1.0846409h9.786437c.599218 0 1.083845.4862183 1.083845 1.0846409v7.419803h-5.303043v2.357084h6.481585v1.262099h-5.891916c1.68386 2.020472 3.843592 3.56507 6.481585 4.629817-.336613.336612-.617521.728929-.842725 1.179338-2.806698-1.348042-4.881282-3.002458-6.228529-4.967226v6.229324h-1.262098v-6.229324c-1.572451 2.134268-3.676479 3.87224-6.314472 5.219486-.224408-.449612-.505317-.841929-.84193-1.177746 2.637993-1.179338 4.799317-2.807493 6.481585-4.883669h-5.639655v-1.262099h6.314472v-2.357084zm-2.946754-4.8828735c-1.066338-1.3472464-1.99262-2.4406408-2.778845-3.2825704l1.094986-.7583732c.674817.6732253 1.628155 1.7403591 2.862401 3.1990141zm-1.262098 14.3939715-.925486-.925486c.448021-.447225.673225-.98119.673225-1.598711v-7.89488c0-.14881-.121754-.269768-.271359-.269768h-2.002169v-1.2644856h2.451782c.598422 0 1.083049.4854225 1.083049 1.0838446v8.260141c.223613-.167112.533965-.448021.926282-.841929.674816-.615134 1.149894-1.036895 1.430802-1.262099.055705.505317.1695.95493.336613 1.348042-.392317.280113-.925486.730522-1.598711 1.34486-.561021.506112-.982782.842725-1.262099 1.012225-.057296.110613-.198148.280113-.42176.504521-.167113.223613-.308761.390725-.420169.503725zm10.85914-10.606084h4.040944v-2.5257889h-4.040944zm3.770381-6.2285283h-3.770381v2.5241972h4.040944v-2.2528381c0-.1504014-.120958-.2713591-.270563-.2713591zm-9.073423 6.2285283h4.040944v-2.5257889h-4.040944zm0-5.9571692v2.2528381h4.040944v-2.5241972h-3.77038c-.149606 0-.270564.1209577-.270564.2713591zm-77.349296 15.6377672h11.870571v-1.935323h-11.870571zm0-3.030309h11.870571v-2.189176h-11.870571zm0-3.284162h11.870571v-2.104824h-11.870571zm0-5.1152398v1.9170208h11.869775v-1.9170208c0-.1504014-.120958-.2713592-.271359-.2713592h-11.327852c-.149606 0-.270564.1209578-.270564.2713592z"/><path d="m186.470547 44.6676268h-14.22288v-3.3589648c0-1.606669-1.309049-2.9149226-2.91731-2.9149226-1.609056 0-2.918106 1.3082536-2.918106 2.9149226v3.3589648h-13.800324c-2.895028 0-5.250521 2.3531056-5.250521 5.2457464v11.5554437c0 1.6082606 1.30905 2.9157183 2.918106 2.9157183s2.918106-1.3074577 2.918106-2.9157183v-13.7653099h13.214633v17.9359648c0 1.6082606 1.30905 2.9157183 2.918106 2.9157183 1.608261 0 2.91731-1.3074577 2.91731-2.9157183v-17.9359648h13.63719v10.8901761c0 .2124718-.085944.4002746-.262606.5737535-1.092598 1.0719085-4.558993 1.0130211-5.053169 1.0130211h-2.669028c-.77031 0-1.398176.6270705-1.398176 1.3973803 0 .7711057.627866 1.3981761 1.398176 1.3981761h3.049409c1.640887 0 7.719014.1885986 9.822246-2.0300211.612747-.6461691.951747-1.507993.951747-2.3523099v-8.6803099c0-2.8926408-2.356289-5.2457464-5.252909-5.2457464"/><path d="m191.611251 22.6788613c.189395-.1551761.381176-.3183099.577733-.4957676 1.480936-1.3321268 3.062141-3.0995423 3.273817-5.9826338.113795-1.5430071-.23555-2.7629296-1.03769-3.6255493-.923895-.9939226-2.411993-1.4976479-4.421324-1.4976479h-10.536057c-2.895028 0-5.250521 2.3531056-5.250521 5.2457465v22.7193662c0 1.6082605 1.309049 2.9173098 2.91731 2.9173098 1.609852 0 2.918901-1.3090493 2.918901-2.9173098v-24.9292324h9.59386c-.016712 1.2517535-.681184 3.2610845-1.477754 4.7873802-.766331 1.4666127-2.16212 2.6984719-2.565577 3.1210282-.381972.3994789-.771106.7695141-.775085 1.3552042-.003183.314331.100268.5681831.311148.8745564 1.57643 2.2878521 5.36193 7.0831901 5.424 8.8744788.007162.2323662-.079577.4257395-.265789.5904648-1.377486 1.2135564-6.402007.3270634-6.967803.3015986-.876943-.0397887-1.398971.6270704-1.398971 1.3973803 0 .7687183.557042 1.2382254 1.355204 1.3941972 3.062141.596831 8.89119 1.4244366 11.908767-.9414014.984374-.7711057 1.639296-1.7801479 1.626564-3.082831-.042972-4.1849789-3.77993-8.2306972-5.210733-10.106338"/><path d="m156.988449 33.0930845h12.046437c.771106 0 1.398972-.6270704 1.398972-1.3973803 0-.7711056-.627866-1.398176-1.398972-1.398176h-10.864711c.47269-1.4912817.713014-3.0183733.713014-4.5414859v-.4886057h8.034141c.770309 0 1.398176-.6270704 1.398176-1.398176 0-.7703099-.627867-1.3973803-1.398176-1.3973803h-8.034141v-4.7913592h9.472901c.77031 0 1.398176-.6270704 1.398176-1.3973803 0-.7711056-.627866-1.398176-1.398176-1.398176h-9.472901v-2.839324l-.008754-.179845h-.00557c-.097085-1.5183381-1.366345-2.72552819-2.909352-2.72552819-1.607465 0-2.914923 1.30666199-2.914923 2.92049299v2.8242042h-8.704183c-.771106 0-1.398176.6270704-1.398176 1.398176 0 .7703099.62707 1.3973803 1.398176 1.3973803h8.704183v4.7913592h-7.264627c-.771901 0-1.398971.6270704-1.398971 1.3973803 0 .7711056.62707 1.398176 1.398971 1.398176h7.264627v.4886057c0 1.5231126-.214063 3.0502042-.63662 4.5414859h-8.746359c-.771901 0-1.398972.6270704-1.398972 1.398176 0 .7703099.627071 1.3973803 1.398972 1.3973803h7.690366c-2.517035 5.2799648-6.130647 7.4484507-7.089556 8.3222113-.274542.250669-.413803.6103591-.417782.9843732-.003183.3748099.138465.7257465.399479.9915352.273747.2793169.635824.4193733.998697.4193733.344571 0 .640599-.1679085.961296-.3525282.673226-.388338 7.520866-4.3083239 10.784338-10.3649648"/><path d="m134.770501 62.2888627h-17.024803c.009549-.0962888.01512-.1885986.01512-.2793169v-48.6369507c0-1.606669-1.30905-2.9141268-2.918106-2.9141268-1.608261 0-2.91731 1.3074578-2.91731 2.9141268v48.6369507c0 .0907183.004775.1830281.01512.2793169h-8.468634c.010345-.0962888.01512-.1885986.01512-.2793169v-48.6369507c0-1.606669-1.30905-2.9141268-2.918106-2.9141268-1.6082605 0-2.9173097 1.3074578-2.9173097 2.9141268v48.6369507c0 .0907183.0047746.1830281.0151197.2793169h-16.9046409c-.7711056 0-1.3989718.6270704-1.3989718 1.398176 0 .7703099.6278662 1.3973803 1.3989718 1.3973803h54.0084299c.771105 0 1.398972-.6270704 1.398972-1.3973803 0-.7711056-.627867-1.398176-1.398972-1.398176"/><path d="m86.0028838 36.5435634c1.9305493 4.4929436 2.9268592 8.5338873 3.3128099 9.8286127.3827676 1.2827887 1.3997676 2.1334718 2.8337535 2.1334718.3756056 0 .7551901-.0748028 1.1196549-.2299789 1.4888944-.6382113 1.9345282-2.108007 1.5151549-3.9120282-.236345-1.0162042-.9398098-4.5653591-3.2276619-9.7737042-2.2838733-5.2003873-4.6974578-9.3010141-5.318162-10.325176-.9071831-1.4984437-2.5257887-2.6364014-4.3775563-1.5939367-1.8454014 1.0392817-1.5780212 2.7764578-.8164648 4.2932043.5236197 1.0440563 3.0271267 5.0857957 4.9584718 9.5795352"/><path d="m126.511235 34.3855021c-1.98307 4.3512958-4.342542 8.0930282-4.882873 8.9285916-.488606.7281338-1.652824 2.496345-.254648 3.9916056 1.416479 1.5159507 3.405916 1.2302676 4.960063-.4965634.689937-.7655352 3.303261-4.7515704 5.568036-9.831 2.26-5.070676 3.462415-9.1418591 3.818126-10.2519648.469507-1.4634296.422557-3.4648028-1.424436-4.1905493-2.350718-.9238943-3.65181.7122183-4.243866 2.2584085-.407437 1.0639507-1.55574 5.2385845-3.540402 9.5914718"/><path d="m71.870881 18.8142613h-24.2687395c1.232655-2.9602817 2.041162-5.2170986 2.041162-5.2202817.791-1.564493.257831-3.4329719-1.1880915-4.16190143-1.4467183-.7281338-3.266655-.04854225-4.0664085 1.53902813-.0222817.0612747-2.2480634 6.2555845-4.5629718 10.8472043-2.3133169 4.5884366-5.1566197 8.5617394-5.812338 9.5508873-.9390141 1.4164789-.515662 3.3382746.9501549 4.0266197 1.6488451.7758803 3.2491479.0628662 4.2764929-1.3520211.0278522-.038993 2.9984789-3.8610986 5.646817-9.2158662.4886056-.9875564.9963098-2.0698099 1.5095845-3.2181127h1.3042746c-.0230775.1488099-.0501338.3437747-.0501338.4790563v43.551155c0 1.606669 1.3090493 2.9149225 2.9181056 2.9149225 1.6090564 0 2.9181057-1.3082535 2.9181057-2.9149225v-13.7653099h17.3128732c.7711056 0 1.3989718-.6270704 1.3989718-1.398176 0-.7703099-.6278662-1.3973803-1.3989718-1.3973803h-17.3128732v-12.7745704h16.353169c.7719014 0 1.3989718-.6278662 1.3989718-1.3981761s-.6270704-1.3973803-1.3989718-1.3973803h-16.353169v-11.420162c0-.1567676-.014324-.3167183-.0429719-.4790563h18.4269578c.7711056 0 1.3989718-.6270704 1.3989718-1.3973803 0-.7711056-.6278662-1.398176-1.3989718-1.398176"/><path d="m33.2159683 9.43279437c-1.4475141-.72972536-3.2666549-.04933803-4.0664084 1.54061973-.0286479.081169-2.6531127 8.2585493-6.2524014 14.6565774-3.5961057 6.3908662-7.2996409 9.8859085-8.4200916 11.6183099-1.0305282 1.5939366-.2769296 3.3048521 1.1681972 4.0345775 1.4411479.7265422 2.9682394-.1352817 4.0465141-1.4960564.2021267-.2554436 2.5719436-2.8894577 5.0635141-6.4457746v32.2996972c0 1.606669 1.3090492 2.9141267 2.9181056 2.9141267 1.6090563 0 2.9173098-1.3074577 2.9173098-2.9141267v-42.7171831c2.0889085-4.6194719 3.7297958-9.0949085 3.8181268-9.3376197.783838-1.564493.2498732-3.4258099-1.1928662-4.15314793"/></g><path d="m319.37112 1.11050352c12.955212.64457747 17.152923 4.56376761 19.541838 10.66258448 2.628444 6.7115634 2.628444 21.2821972 2.628444 26.3130845 0 5.0300916 0 19.6007254-2.628444 26.3122888-2.388915 6.0980211-6.586626 10.0188028-19.541838 10.6633802-14.086802.7002817-34.554922 1.1101057-44.102626 1.1101057-9.547705 0-30.003092-.409824-44.089099-1.1101057-12.955211-.6445774-17.153718-4.5653591-19.541838-10.6633802-2.628444-6.7115634-2.628444-21.2821972-2.628444-26.3122888 0-5.0308873 0-19.6015211 2.628444-26.3130845 2.38812-6.09881687 6.586627-10.01800701 19.541838-10.66258448 14.086007-.70107746 34.541394-1.11090141 44.089099-1.11090141 9.547704 0 30.015824.40982395 44.102626 1.11090141zm9.16812 61.31204928c1.087028-1.0862324 1.087028-2.8488732 0-3.9351056l-9.698901-9.700493c-1.085437-1.0862324-2.848874-1.0862324-3.93431 0-1.087824 1.0862324-1.087824 2.8488733 0 3.9359014l9.698106 9.6996972c1.087823 1.0862324 2.848873 1.0862324 3.935105 0zm-16.447866 3.3502113v-21.688838h13.550451c.72495 0 1.304274-.6230916 1.230267-1.363162-.064457-.6437817-.654127-1.1093099-1.300296-1.1093099h-13.480422v-5.9667183h8.545028c0 1.6265634 1.396585 2.9268592 3.055775 2.7685 1.446718-.1384648 2.509077-1.4363732 2.509077-2.8894577v-20.4959719c0-2.5234014-2.045936-4.5701338-4.570134-4.5701338h-24.642753c-2.523402 0-4.570134 2.0467324-4.570134 4.5701338v20.4983592c0 1.4522887 1.062359 2.7494014 2.508282 2.8870704 1.65919.1583592 3.054979-1.1419366 3.054979-2.7685h8.546619v5.9667183h-13.479626c-.646965 0-1.235838.4655282-1.300296 1.1093099-.074007.7400704.505317 1.363162 1.229472 1.363162h13.55045v1.5573309c-.251464.1289155-.492584.2856831-.702669.4965634l-14.997964 14.9987606c-1.084641 1.0862324-1.084641 2.8480775 0 3.9351056 1.087824 1.0862324 2.848873 1.0862324 3.936697 0l11.763936-11.7655281v12.3488309c0 1.4538803 1.063155 2.7501972 2.509874 2.8862747 1.65919.1575634 3.053387-1.1427324 3.053387-2.7685zm-32.882204-2.9547113c1.086232 1.0862324 2.848873 1.0862324 3.93431 0l9.671049-9.6718451c1.087824-1.0862323 1.297908-3.0581619.210084-4.1443943-1.085436-1.0862324-2.846486-1.0862324-3.934309 0l-1.777761 1.7777605v-20.5421267c0-2.1358592-.935831-3.9016831-2.848078-4.7157606-.797366-.3397958-1.93214-.4098239-3.024739-.4567746-3.911232-.1687043-5.287127-2.1183521-5.673077-2.8703592-.097085-.1893943-.192578-.4384718-.236345-.4957676-.479853-.6302535-1.741951-.3127394-1.336106.8108944.132098.4002746.384359.9000211.745641 1.373507.66288.8681902 1.64407 1.6727183 2.310929 2.1231268.548289.370831 1.155465.6732253 1.393402.808507 3.379655 1.9241831 3.103521 3.1671831 3.103521 5.3038381 0 2.6666408.021486 20.0662535.021486 24.2042816l-2.560007 2.5600071c-1.084641 1.0870282-1.084641 2.8488732 0 3.9351056zm-16.538585-18.7818732c2.955507 0 5.351585-2.3833451 5.351585-5.3229366 0-2.9387958-2.396078-5.3213451-5.351585-5.3213451-3.483901 0-3.35976 2.9101479-10.484331 2.9101479h-28.639134c-1.303478 0-2.351514 1.0997605-2.351514 2.4111972 0 1.3114366 1.048036 2.4127887 2.351514 2.4127887h28.657437c7.115021 0 6.843662 2.9101479 10.466028 2.9101479zm12.771388-34.07268312c-.522029 3.05259152.163133 6.32640842 3.05657 8.67473942 3.155246 2.5608028 7.528824.9795986 8.811613 5.9921831.010345.0366056.037401.0660493.075598.0771902l.323085.1010633c.079577.0238733.15438-.0429718.140056-.123345-.37481-2.2321479-1.258915-4.3266268-2.630035-6.204655-1.239021-1.6902253-2.871155-3.2109507-4.846268-4.6298169-.15995-.1153873-.003183-.3604859.167113-.2610141 1.566084.9175282 2.934021 1.9058803 4.099035 3.1560423 1.218331 1.3058662 2.219416 2.8998028 3.000866 4.9942817.576141-4.6282254-.901612-6.8691268-3.039859-8.2466127-2.675394-1.7260352-5.409676-1.9273662-7.519274-3.86109857-1.277219-1.16819719-1.603486.11936619-1.6385.33104225zm36.64964 22.95770072v-8.5084226h8.545028v8.5084226zm-14.109881 0v-8.5084226h8.54662v8.5084226zm14.109881-11.2315634v-8.5084225h8.545028v8.5084225zm-14.109881 0v-8.5084225h8.54662v8.5084225zm-37.018402 14.2197768c.92469-.4281268 4.8025 1.7570704 4.81762 2.8616056.016711 1.1045352-3.943859 3.2435775-4.81762 2.8616056-.872965-.381176-.921507-5.2950845 0-5.7232112z" fill="#42c57a"/></g></svg>